<svg width="37" height="37" viewBox="0 0 37 37" fill="none" xmlns="http://www.w3.org/2000/svg">
<g clip-path="url(#clip0_665_4851)">
<path d="M0.0651538 19.784V36.9599H0.0200195V18.8467C0.027241 19.1608 0.0422858 19.4732 0.0651538 19.784Z" fill="#B3B3B3"/>
<path d="M0.0200195 16.8901H0.0773401C0.0472505 17.2526 0.0281437 17.6192 0.0200195 17.9901V16.8901Z" fill="#B3B3B3"/>
<path d="M9.27265 18.1667V18.6696C9.2704 18.5899 9.26904 18.5102 9.26904 18.43V18.4173C9.26904 18.333 9.27265 18.2492 9.27265 18.1667Z" fill="#B3B3B3"/>
<path d="M36.98 18.4177C36.9849 21.6547 36.1357 24.8352 34.5189 27.6358L34.4737 27.7165C32.79 30.5987 30.36 32.9693 27.4418 34.5765C25.0872 35.8723 22.4767 36.6304 19.7965 36.7964C19.4114 36.8209 19.0231 36.8331 18.6316 36.8331H18.5251V27.7178V27.6608C18.5251 27.6608 18.7114 27.6608 18.5643 27.6608L18.5251 27.6608V27.6155H18.5643C19.7679 27.6169 20.96 27.38 22.0723 26.9183C23.1845 26.4566 24.1951 25.7792 25.0462 24.925C25.8973 24.0707 26.5721 23.0562 27.0321 21.9398C27.492 20.8233 27.728 19.6268 27.7266 18.4186C27.7266 13.34 23.6248 9.22176 18.5643 9.22176H18.4289C16.0428 9.2224 13.751 10.1574 12.041 11.828C10.331 13.4986 9.33778 15.7729 9.27255 18.1672C9.27029 18.251 9.26893 18.3348 9.26893 18.4191V18.4317C9.26893 18.5119 9.26893 18.5917 9.27255 18.6714V20.8565C6.66108 22.3508 4.45553 24.4665 2.84999 27.0174C1.24445 29.5684 0.288118 32.4763 0.0651538 35.4853V19.7841C0.0422858 19.4733 0.027241 19.1609 0.0200195 18.8467V17.99C0.0281437 17.6203 0.0472505 17.2537 0.0773401 16.89C0.45954 12.2858 2.55158 7.99388 5.93859 4.86538C9.32561 1.73688 13.7602 0.000294615 18.363 0L18.6316 0C28.7651 0 36.98 8.24545 36.98 18.4177Z" fill="#12B38F"/>
<path d="M18.5251 18.4387V27.4997H18.4082C15.1385 27.5013 11.9285 28.379 9.10959 30.042C6.2907 31.705 3.9651 34.0931 2.3729 36.9597H0.0651855V35.4851C0.266031 32.719 1.09048 30.0349 2.47626 27.6356C4.10664 24.8135 6.45129 22.4742 9.27258 20.8548C9.36555 20.8014 9.45898 20.749 9.55286 20.6976C12.2528 19.2109 15.2835 18.4339 18.3631 18.4387H18.5251Z" fill="#00D5A4"/>
</g>
<defs>
<clipPath id="clip0_665_4851">
<rect width="36.96" height="36.96" fill="white" transform="translate(0.0200195)"/>
</clipPath>
</defs>
</svg>
