<svg width="165" height="32" viewBox="0 0 165 32" fill="none" xmlns="http://www.w3.org/2000/svg">
<g clip-path="url(#clip0_633_1944)">
<path d="M0.0376119 17.0868V31.4H0V16.3057C0.0060179 16.5674 0.0185552 16.8278 0.0376119 17.0868Z" fill="#B3B3B3"/>
<path d="M0 14.6748H0.0477671C0.0226925 14.9768 0.00677014 15.2824 0 15.5915V14.6748Z" fill="#B3B3B3"/>
<path d="M7.71046 15.7388V16.1578C7.70858 16.0914 7.70745 16.0249 7.70745 15.9581V15.9475C7.70745 15.8773 7.71046 15.8075 7.71046 15.7388Z" fill="#B3B3B3"/>
<path d="M30.8 15.9482C30.8041 18.6456 30.0964 21.2961 28.749 23.63L28.7114 23.6972C27.3083 26.099 25.2833 28.0745 22.8515 29.4139C20.8893 30.4937 18.7139 31.1254 16.4804 31.2638C16.1594 31.2842 15.8359 31.2944 15.5096 31.2944H15.4209V23.6983V23.6507C15.4209 23.6507 15.5762 23.6507 15.4536 23.6507L15.4209 23.6507V23.613H15.4536C16.4566 23.6142 17.45 23.4167 18.3769 23.032C19.3038 22.6473 20.1459 22.0828 20.8552 21.3709C21.5644 20.659 22.1268 19.8136 22.51 18.8833C22.8933 17.9529 23.09 16.9557 23.0888 15.9489C23.0888 11.7167 19.6706 8.2849 15.4536 8.2849H15.3408C13.3523 8.28543 11.4424 9.06463 10.0175 10.4568C8.59249 11.8489 7.7648 13.7442 7.71044 15.7394C7.70856 15.8093 7.70743 15.8791 7.70743 15.9493V15.9599C7.70743 16.0267 7.70743 16.0932 7.71044 16.1596V17.9805C5.53421 19.2258 3.69626 20.9889 2.35831 23.1146C1.02036 25.2404 0.223415 27.6637 0.0376119 30.1712V17.0868C0.0185552 16.8279 0.0060179 16.5675 0 16.3057V15.5918C0.00677014 15.2837 0.0226925 14.9782 0.0477671 14.6751C0.366267 10.8383 2.10963 7.26166 4.93215 4.65458C7.75466 2.0475 11.4502 0.600343 15.2858 0.600098L15.5096 0.600098C23.9543 0.600098 30.8 7.4713 30.8 15.9482Z" fill="#12B38F"/>
<path d="M15.4209 15.9658V23.5166H15.3234C12.5987 23.518 9.92368 24.2494 7.5746 25.6352C5.22552 27.0211 3.28752 29.0111 1.96069 31.4H0.0375977V30.1711C0.204969 27.8661 0.892011 25.6293 2.04682 23.6299C3.40548 21.2782 5.35935 19.3288 7.71042 17.9793C7.7879 17.9347 7.86576 17.891 7.94399 17.8482C10.194 16.6093 12.7196 15.9618 15.2858 15.9658H15.4209Z" fill="#00D5A4"/>
</g>
<path d="M39.632 24.5V7.7H45.728C49.568 7.7 52.112 10.004 52.112 13.508C52.112 17.036 49.568 19.34 45.728 19.34H42.488V24.5H39.632ZM42.488 16.748H45.56C47.912 16.748 49.184 15.62 49.184 13.532C49.184 11.468 47.912 10.34 45.56 10.34H42.488V16.748ZM54.5225 24.5V11.972H56.6585L57.0185 13.82C57.8825 12.548 59.0585 11.972 61.0265 11.972H62.2745V14.492H60.9545C58.8425 14.492 57.2585 15.572 57.2585 18.764V24.5H54.5225ZM69.6485 24.812C65.6645 24.812 62.8565 22.1 62.8565 18.236C62.8565 14.396 65.6645 11.66 69.6485 11.66C73.6085 11.66 76.4165 14.396 76.4165 18.236C76.4165 22.1 73.6085 24.812 69.6485 24.812ZM65.5685 18.236C65.5685 20.636 67.2485 22.316 69.6485 22.316C72.0245 22.316 73.7045 20.636 73.7045 18.236C73.7045 15.836 72.0245 14.156 69.6485 14.156C67.2485 14.156 65.5685 15.836 65.5685 18.236ZM77.0857 24.5L81.7417 18.14L77.3017 11.972H80.4937L82.0537 14.204L83.4937 16.244L84.9337 14.204L86.4937 11.972H89.6857L85.2457 18.14L89.9017 24.5H86.6617L84.9337 22.124L83.4937 20.108L82.0537 22.124L80.3257 24.5H77.0857ZM91.7968 29.3V26.828H93.1408C94.6768 26.828 95.2048 26.492 95.6848 25.196L96.0688 24.14L90.2368 11.972H93.2848L97.3888 20.852L98.7088 17.372L100.749 11.972H103.677L98.0608 26.252C97.1248 28.652 95.9248 29.3 93.3808 29.3H91.7968ZM111.428 24.812C107.324 24.812 104.732 22.604 104.732 19.22H107.564C107.588 21.14 109.172 22.268 111.428 22.268C113.444 22.268 114.716 21.452 114.716 20.036C114.716 18.668 113.516 17.924 110.828 17.276C106.748 16.34 104.876 14.828 104.876 12.164C104.876 9.212 107.276 7.388 111.02 7.388C114.908 7.388 117.332 9.476 117.332 12.788H114.524C114.524 11.036 113.18 9.932 111.044 9.932C109.004 9.932 107.756 10.772 107.756 12.14C107.756 13.34 108.716 14.084 111.692 14.828C115.964 15.86 117.644 17.396 117.644 19.94C117.644 22.988 115.22 24.812 111.428 24.812ZM124.454 24.716C121.454 24.716 119.606 23.252 119.606 20.852C119.606 18.548 121.31 17.06 123.926 17.06H128.75V16.676C128.75 15.02 127.622 13.988 125.774 13.988C124.382 13.988 123.278 14.66 122.966 15.692H120.254C120.782 13.172 122.846 11.66 125.75 11.66C129.23 11.66 131.462 13.652 131.462 16.748V24.5H129.302L129.014 22.964C127.886 24.116 126.374 24.716 124.454 24.716ZM122.342 20.78C122.342 21.812 123.302 22.484 124.814 22.484C127.022 22.484 128.63 21.14 128.774 19.148H124.382C123.182 19.148 122.342 19.796 122.342 20.78ZM140.463 24.812C136.599 24.812 133.863 22.052 133.863 18.236C133.863 14.42 136.623 11.66 140.463 11.66C143.727 11.66 146.343 13.628 146.919 16.58H144.207C143.535 15.068 142.143 14.156 140.463 14.156C138.207 14.156 136.575 15.836 136.575 18.236C136.575 20.636 138.207 22.316 140.463 22.316C142.239 22.316 143.703 21.284 144.255 19.676H147.039C146.271 22.844 143.751 24.812 140.463 24.812ZM149.647 24.5V6.74H152.383V13.196C153.439 12.14 154.879 11.66 156.343 11.66C159.655 11.66 161.623 13.844 161.623 17.372V24.5H158.887V17.66C158.887 15.452 157.735 14.156 155.839 14.156C153.799 14.156 152.383 15.668 152.383 18.092V24.5H149.647Z" fill="#0F1A30"/>
<defs>
<clipPath id="clip0_633_1944">
<rect width="30.8" height="30.8" fill="white" transform="translate(0 0.600098)"/>
</clipPath>
</defs>
</svg>
